<svg id="Layer_1" enable-background="new 0 0 256 256" height="512" viewBox="0 0 256 256" width="512" xmlns="http://www.w3.org/2000/svg"><path d="m252 209.884s-185.171 27.218-216.15-89.061v74c0 27.614 19.511 50 43.579 50h172.571z" fill="#526faa"/><path d="m45.85 194.824v-49.158c-4.176-7.45-7.565-15.702-10-24.842v74c0 27.614 19.511 50 43.579 50h10c-24.068 0-43.579-22.386-43.579-50z" fill="#708dc8"/><path d="m252 246.824h-172.571c-25.132 0-45.578-23.327-45.578-52v-74c0-1.004.745-1.853 1.74-1.983.994-.132 1.935.498 2.192 1.468 6.929 26.008 22.388 46.792 45.946 61.774 18.965 12.061 43.199 20.433 72.032 24.885 49.303 7.614 95.487 1.006 95.947.937.576-.082 1.158.085 1.599.466.439.38.692.932.692 1.513v34.939c.001 1.105-.895 2.001-1.999 2.001zm-214.149-113.445v61.445c0 26.467 18.652 48 41.578 48h170.571v-30.662c-9.992 1.228-51.16 5.492-94.763-1.227-29.4-4.53-54.169-13.094-73.617-25.453-20.706-13.157-35.386-30.646-43.769-52.103z" fill="#690589"/><path d="m252 209.884s-212.456 27.218-248-89.061v74c0 27.614 22.386 50 50 50h198z" fill="#526faa"/><path d="m14 194.824v-51.519c-4.119-6.823-7.498-14.296-10-22.481v74c0 27.614 22.386 50 50 50h10c-27.614 0-50-22.386-50-50z" fill="#708dc8"/><path d="m242.312 210.869v33.954h9.688v-34.939s-3.509.449-9.688.985z" fill="#34518c"/><path d="m252 246.824h-198c-28.673 0-52-23.327-52-52v-74c0-.99.725-1.832 1.704-1.978.986-.145 1.919.447 2.209 1.394 7.95 26.009 25.715 46.804 52.801 61.806 21.826 12.088 49.711 20.477 82.881 24.932 56.646 7.608 109.623.992 110.151.924.571-.073 1.145.103 1.575.482.432.38.679.927.679 1.501v34.939c0 1.104-.896 2-2 2zm-246-114.737v62.736c0 26.467 21.532 48 48 48h196v-30.697c-10.76 1.168-58.419 5.599-108.938-1.186-33.665-4.521-62.023-13.066-84.286-25.397-24.23-13.419-41.266-31.367-50.776-53.456z" fill="#690589"/><path d="m90.027 164.249-2.644 12.571 27.571-7.327z" fill="#ff4397"/><path d="m217.879 66.168-96.906-20.384c-3.033-.638-6.169 1.143-6.897 4.155-.754 3.117 1.22 6.218 4.335 6.873l31.743 6.677-7.546 35.873c-.158.052-.315.106-.471.172l-23.937 10.165c-1.775.754-3.07 2.328-3.467 4.216l-7.636 36.303c-.647 3.075 1.109 6.248 4.135 7.093 3.317.925 6.673-1.149 7.37-4.466l7.044-33.487 10.151-4.31c6.791-2.884 14.302-3.616 21.522-2.097 7.22 1.519 13.8 5.215 18.854 10.59l7.553 8.034-7.002 33.29c-.647 3.075 1.109 6.248 4.135 7.093 3.317.925 6.673-1.15 7.37-4.466l7.678-36.5c.397-1.888-.154-3.85-1.475-5.256l-17.812-18.946c-.116-.123-.238-.236-.361-.347l7.546-35.872 31.512 6.629c3.033.638 6.169-1.143 6.897-4.155.753-3.121-1.22-6.221-4.335-6.877z" fill="#fcc24c"/><path d="m170.607 49.783c-7.928-1.668-13.003-9.446-11.335-17.374l2.015-9.58c1.668-7.928 9.446-13.003 17.374-11.335 7.928 1.668 13.003 9.446 11.335 17.374l-2.015 9.581c-1.668 7.927-9.446 13.002-17.374 11.334z" fill="#ff9f70"/><path d="m215.665 190.677-144.699-30.437c-3.011-.633-4.939-3.588-4.305-6.599.633-3.011 3.588-4.939 6.599-4.305l144.699 30.438c4.612.97 9.325.087 13.272-2.489l12.153-7.928c2.577-1.682 6.029-.954 7.711 1.622 1.681 2.577.955 6.029-1.623 7.71l-12.153 7.928c-6.439 4.201-14.13 5.643-21.654 4.06z" fill="#ff4397"/><path d="m251.094 170.978c-1.538-2.355-4.554-3.159-7.03-1.995.168.193.329.395.473.616 1.681 2.577.955 6.029-1.623 7.71l-12.153 7.928c-6.439 4.201-14.13 5.643-21.654 4.061l6.557 1.379c7.524 1.583 15.215.141 21.654-4.061l12.153-7.928c2.578-1.681 3.304-5.133 1.623-7.71z" fill="#e12579"/><path d="m74.856 155.365c.633-3.011 3.588-4.939 6.599-4.305l-8.196-1.724c-3.011-.633-5.966 1.294-6.599 4.305s1.294 5.966 4.305 6.599l8.196 1.724c-3.01-.633-4.938-3.588-4.305-6.599z" fill="#ff61b5"/><g fill="#690589"><path d="m221.653 193.304c-2.127 0-4.27-.222-6.4-.67l-144.699-30.437c-4.085-.859-6.709-4.882-5.851-8.967.86-4.085 4.881-6.709 8.968-5.851l144.7 30.438c4.086.86 8.268.077 11.768-2.207l12.152-7.928c3.497-2.282 8.196-1.292 10.479 2.204 2.281 3.498 1.291 8.198-2.205 10.479l-12.153 7.928c-5.064 3.302-10.851 5.011-16.759 5.011zm-149.541-42.088c-1.653 0-3.142 1.156-3.495 2.837-.405 1.927.833 3.825 2.761 4.23l144.699 30.438c6.997 1.472 14.156.132 20.148-3.778l12.153-7.929c1.649-1.076 2.116-3.293 1.041-4.943-1.076-1.648-3.294-2.115-4.943-1.04l-12.152 7.929c-4.396 2.867-9.644 3.852-14.777 2.771l-144.699-30.439c-.246-.051-.494-.076-.736-.076z"/><path d="m173.631 52.099c-1.134 0-2.283-.116-3.436-.359-8.994-1.892-14.772-10.749-12.88-19.743l2.015-9.581c1.892-8.996 10.752-14.775 19.743-12.881 4.356.917 8.096 3.475 10.528 7.204 2.434 3.729 3.269 8.182 2.352 12.539l-2.015 9.581c-1.649 7.843-8.594 13.24-16.307 13.24zm-2.611-4.273c6.83 1.437 13.566-2.954 15.005-9.79l2.015-9.581c.696-3.312.062-6.696-1.787-9.53s-4.691-4.778-8.003-5.475c-6.83-1.438-13.566 2.953-15.005 9.79l-2.015 9.581c-1.439 6.835 2.953 13.567 9.79 15.005z"/><path d="m182.476 174.18c-.717 0-1.439-.099-2.153-.298-3.993-1.114-6.434-5.256-5.556-9.431l6.788-32.269-6.838-7.273c-4.798-5.103-10.956-8.562-17.809-10.003-6.853-1.439-13.881-.757-20.329 1.98l-9.189 3.903-6.829 32.466c-.447 2.128-1.771 3.998-3.631 5.127-1.886 1.145-4.099 1.45-6.235.853-3.992-1.114-6.432-5.256-5.554-9.43l7.636-36.303c.532-2.526 2.268-4.636 4.644-5.645l23.452-9.96 6.912-32.864-29.786-6.266c-2.044-.43-3.785-1.64-4.9-3.407s-1.458-3.859-.967-5.893c.964-3.981 5.123-6.516 9.253-5.642l96.907 20.384c2.045.43 3.785 1.641 4.9 3.408s1.458 3.859.967 5.893c-.963 3.981-5.103 6.517-9.254 5.642l-29.554-6.217-6.913 32.864 17.452 18.563c1.769 1.881 2.507 4.512 1.975 7.038l-7.678 36.5c-.447 2.129-1.771 3.998-3.631 5.127-1.255.764-2.656 1.153-4.08 1.153zm-32.613-64.01c2.623 0 5.257.273 7.868.822 7.657 1.61 14.539 5.476 19.899 11.177l7.553 8.034c.448.477.635 1.142.5 1.782l-7.003 33.29c-.445 2.117.748 4.206 2.716 4.755 1.057.294 2.15.146 3.083-.42.932-.566 1.568-1.465 1.793-2.531l7.678-36.5c.263-1.247-.102-2.546-.975-3.475l-17.812-18.946c-.079-.084-.158-.156-.237-.227-.533-.477-.771-1.203-.624-1.903l7.546-35.873c.228-1.082 1.284-1.772 2.369-1.545l31.512 6.628c2.043.43 4.081-.767 4.541-2.668.235-.973.072-1.974-.461-2.817-.532-.845-1.364-1.423-2.342-1.629l-96.906-20.384c-2.032-.428-4.081.766-4.541 2.668-.235.973-.072 1.974.461 2.817.533.845 1.364 1.423 2.342 1.628l31.743 6.677c1.08.227 1.772 1.288 1.545 2.369l-7.545 35.873c-.146.699-.656 1.267-1.335 1.489-.104.034-.209.069-.312.112l-23.936 10.165c-1.174.498-2.03 1.54-2.293 2.787l-7.636 36.302c-.445 2.117.748 4.206 2.715 4.754 1.059.293 2.151.146 3.084-.42.932-.566 1.568-1.464 1.793-2.531l7.044-33.488c.135-.64.573-1.174 1.175-1.429l10.15-4.311c4.749-2.012 9.778-3.032 14.848-3.032z"/><path d="m87.383 178.82c-.506 0-1-.192-1.377-.549-.504-.478-.724-1.183-.58-1.862l2.645-12.57c.228-1.081 1.284-1.772 2.369-1.545l24.927 5.243c.906.19 1.562.979 1.587 1.905.024.926-.59 1.747-1.485 1.985l-27.571 7.327c-.171.044-.344.066-.515.066zm4.19-12.202-1.564 7.435 16.306-4.333z"/><path d="m151.549 93.247c-.125 0-.252-.012-.38-.037-1.084-.208-1.795-1.257-1.586-2.341l2.235-11.625c.208-1.084 1.254-1.797 2.342-1.586 1.084.208 1.795 1.257 1.586 2.341l-2.235 11.625c-.184.957-1.022 1.623-1.962 1.623z"/></g></svg>